<svg xmlns="http://www.w3.org/2000/svg" viewBox="0 0 1920 830" width="1920" height="830">
<defs>
<marker id="arrow" viewBox="0 0 10 10" refX="9" refY="5" markerWidth="8" markerHeight="8" orient="auto-start-reverse">
<path d="M 0,0 L 10,5 L 0,10 z" fill="#2a2a2a"/>
</marker>
</defs>
<rect x="0" y="0" width="1920" height="830" fill="#ffffff" stroke="#7f7f7f" stroke-width="1.5"/>
<rect x="0" y="0" width="30" height="830" fill="#f4f4f4" stroke="#7f7f7f" stroke-width="1.5"/>
<text x="15.0" y="415.0" text-anchor="middle" font-family="Arial, Helvetica, sans-serif" font-size="14" font-weight="bold" fill="#1a1a1a" transform="rotate(-90, 15.0, 415.0)">Получение персональной рекомендации</text>
<rect x="30" y="10" width="70" height="200" fill="#f4f4f4" stroke="#7f7f7f" stroke-width="1"/>
<text x="65.0" y="110.0" text-anchor="middle" font-family="Arial, Helvetica, sans-serif" font-size="12" font-weight="bold" fill="#1a1a1a" transform="rotate(-90, 65.0, 110.0)">Пользователь</text>
<line x1="100" y1="10" x2="100" y2="210" stroke="#7f7f7f" stroke-width="1"/>
<rect x="30" y="210" width="70" height="200" fill="#f4f4f4" stroke="#7f7f7f" stroke-width="1"/>
<text x="65.0" y="310.0" text-anchor="middle" font-family="Arial, Helvetica, sans-serif" font-size="12" font-weight="bold" fill="#1a1a1a" transform="rotate(-90, 65.0, 310.0)">Telegram-бот</text>
<line x1="30" y1="210" x2="1920" y2="210" stroke="#7f7f7f" stroke-width="1"/>
<line x1="100" y1="210" x2="100" y2="410" stroke="#7f7f7f" stroke-width="1"/>
<rect x="30" y="410" width="70" height="200" fill="#f4f4f4" stroke="#7f7f7f" stroke-width="1"/>
<text x="65.0" y="510.0" text-anchor="middle" font-family="Arial, Helvetica, sans-serif" font-size="12" font-weight="bold" fill="#1a1a1a" transform="rotate(-90, 65.0, 510.0)">Backend (FastAPI)</text>
<line x1="30" y1="410" x2="1920" y2="410" stroke="#7f7f7f" stroke-width="1"/>
<line x1="100" y1="410" x2="100" y2="610" stroke="#7f7f7f" stroke-width="1"/>
<rect x="30" y="610" width="70" height="200" fill="#f4f4f4" stroke="#7f7f7f" stroke-width="1"/>
<text x="65.0" y="710.0" text-anchor="middle" font-family="Arial, Helvetica, sans-serif" font-size="12" font-weight="bold" fill="#1a1a1a" transform="rotate(-90, 65.0, 710.0)">Рекомендатель</text>
<line x1="30" y1="610" x2="1920" y2="610" stroke="#7f7f7f" stroke-width="1"/>
<line x1="100" y1="610" x2="100" y2="810" stroke="#7f7f7f" stroke-width="1"/>
<path d="M 188,110.0 L 250.0,110.0" fill="none" stroke="#2a2a2a" stroke-width="1.5" marker-end="url(#arrow)"/>
<path d="M 320.0,145.0 L 320.0,310.0 L 430.0,310.0" fill="none" stroke="#2a2a2a" stroke-width="1.5" marker-end="url(#arrow)"/>
<path d="M 500.0,345.0 L 500.0,510.0 L 674,510.0" fill="none" stroke="#2a2a2a" stroke-width="1.5" marker-end="url(#arrow)"/>
<path d="M 700.0,536 L 700.0,710.0 L 810.0,710.0" fill="none" stroke="#2a2a2a" stroke-width="1.5" marker-end="url(#arrow)"/>
<text x="755.0" y="702.0" text-anchor="middle" dominant-baseline="middle" font-family="Arial, Helvetica, sans-serif" font-size="11" font-weight="normal" fill="#1a1a1a">нет</text>
<path d="M 726,510.0 L 756,510.0 L 756,454.0 L 1224,454.0 L 1224,510.0 L 1254,510.0" fill="none" stroke="#2a2a2a" stroke-width="1.5" marker-end="url(#arrow)"/>
<text x="990.0" y="446.0" text-anchor="middle" dominant-baseline="middle" font-family="Arial, Helvetica, sans-serif" font-size="11" font-weight="normal" fill="#1a1a1a">да</text>
<path d="M 950.0,710.0 L 1010.0,710.0" fill="none" stroke="#2a2a2a" stroke-width="1.5" marker-end="url(#arrow)"/>
<path d="M 1080.0,675.0 L 1080.0,510.0 L 1254,510.0" fill="none" stroke="#2a2a2a" stroke-width="1.5" marker-end="url(#arrow)"/>
<path d="M 1306,510.0 L 1370.0,510.0" fill="none" stroke="#2a2a2a" stroke-width="1.5" marker-end="url(#arrow)"/>
<path d="M 1440.0,475.0 L 1440.0,310.0 L 1550.0,310.0" fill="none" stroke="#2a2a2a" stroke-width="1.5" marker-end="url(#arrow)"/>
<path d="M 1620.0,275.0 L 1620.0,110.0 L 1710.0,110.0" fill="none" stroke="#2a2a2a" stroke-width="1.5" marker-end="url(#arrow)"/>
<path d="M 1850.0,110.0 L 1862,110.0" fill="none" stroke="#2a2a2a" stroke-width="1.5" marker-end="url(#arrow)"/>
<circle cx="170" cy="110" r="18" fill="#9bd99b" stroke="#4a9a4a" stroke-width="1.5"/>
<rect x="250.0" y="75.0" width="140" height="70" rx="8" ry="8" fill="#dceefb" stroke="#4a90d9" stroke-width="1.5"/>
<text x="320" text-anchor="middle" font-family="Arial, Helvetica, sans-serif" font-size="12" font-weight="normal" fill="#1a1a1a"><tspan x="320" y="103.0" dominant-baseline="middle">Запросить</tspan><tspan x="320" y="117.0" dominant-baseline="middle">рекомендации</tspan></text>
<rect x="430.0" y="275.0" width="140" height="70" rx="8" ry="8" fill="#dceefb" stroke="#4a90d9" stroke-width="1.5"/>
<text x="500" text-anchor="middle" font-family="Arial, Helvetica, sans-serif" font-size="12" font-weight="normal" fill="#1a1a1a"><tspan x="500" y="303.0" dominant-baseline="middle">Отправить</tspan><tspan x="500" y="317.0" dominant-baseline="middle">запрос в API</tspan></text>
<polygon points="700,484 726,510 700,536 674,510" fill="#fff2a8" stroke="#a8a000" stroke-width="1.5"/>
<line x1="688.3" y1="498.3" x2="711.7" y2="521.7" stroke="#a8a000" stroke-width="2"/><line x1="688.3" y1="521.7" x2="711.7" y2="498.3" stroke="#a8a000" stroke-width="2"/>
<text x="700" text-anchor="middle" font-family="Arial, Helvetica, sans-serif" font-size="11" font-weight="normal" fill="#1a1a1a"><tspan x="700" y="551.5" dominant-baseline="middle">Кэш</tspan><tspan x="700" y="564.5" dominant-baseline="middle">актуален?</tspan></text>
<rect x="810.0" y="675.0" width="140" height="70" rx="8" ry="8" fill="#dceefb" stroke="#4a90d9" stroke-width="1.5"/>
<text x="880" text-anchor="middle" font-family="Arial, Helvetica, sans-serif" font-size="12" font-weight="normal" fill="#1a1a1a"><tspan x="880" y="703.0" dominant-baseline="middle">Сформировать</tspan><tspan x="880" y="717.0" dominant-baseline="middle">пул кандидатов</tspan></text>
<rect x="1010.0" y="675.0" width="140" height="70" rx="8" ry="8" fill="#dceefb" stroke="#4a90d9" stroke-width="1.5"/>
<text x="1080" text-anchor="middle" font-family="Arial, Helvetica, sans-serif" font-size="12" font-weight="normal" fill="#1a1a1a"><tspan x="1080" y="703.0" dominant-baseline="middle">Гибридное</tspan><tspan x="1080" y="717.0" dominant-baseline="middle">ранжирование</tspan></text>
<polygon points="1280,484 1306,510 1280,536 1254,510" fill="#fff2a8" stroke="#a8a000" stroke-width="1.5"/>
<line x1="1268.3" y1="498.3" x2="1291.7" y2="521.7" stroke="#a8a000" stroke-width="2"/><line x1="1268.3" y1="521.7" x2="1291.7" y2="498.3" stroke="#a8a000" stroke-width="2"/>
<rect x="1370.0" y="475.0" width="140" height="70" rx="8" ry="8" fill="#dceefb" stroke="#4a90d9" stroke-width="1.5"/>
<text x="1440" text-anchor="middle" font-family="Arial, Helvetica, sans-serif" font-size="12" font-weight="normal" fill="#1a1a1a"><tspan x="1440" y="503.0" dominant-baseline="middle">Сформировать</tspan><tspan x="1440" y="517.0" dominant-baseline="middle">JSON-ответ</tspan></text>
<rect x="1550.0" y="275.0" width="140" height="70" rx="8" ry="8" fill="#dceefb" stroke="#4a90d9" stroke-width="1.5"/>
<text x="1620" text-anchor="middle" font-family="Arial, Helvetica, sans-serif" font-size="12" font-weight="normal" fill="#1a1a1a"><tspan x="1620" y="303.0" dominant-baseline="middle">Отобразить</tspan><tspan x="1620" y="317.0" dominant-baseline="middle">карточки</tspan></text>
<rect x="1710.0" y="75.0" width="140" height="70" rx="8" ry="8" fill="#dceefb" stroke="#4a90d9" stroke-width="1.5"/>
<text x="1780" text-anchor="middle" font-family="Arial, Helvetica, sans-serif" font-size="12" font-weight="normal" fill="#1a1a1a"><tspan x="1780" y="103.0" dominant-baseline="middle">Просмотреть</tspan><tspan x="1780" y="117.0" dominant-baseline="middle">подборку</tspan></text>
<circle cx="1880" cy="110" r="18" fill="#f4a8a8" stroke="#b04040" stroke-width="3"/>
<text x="1880" y="142" text-anchor="middle" dominant-baseline="middle" font-family="Arial, Helvetica, sans-serif" font-size="11" font-weight="normal" fill="#1a1a1a">Готово</text>
</svg>